<svg xmlns="http://www.w3.org/2000/svg" xmlns:xlink="http://www.w3.org/1999/xlink" zoomAndPan="magnify" preserveAspectRatio="xMidYMid meet" version="1.0" viewBox="60.74 174.18 253.53 17.73"><defs><g/></defs><g fill="#ff6442" fill-opacity="1"><g transform="translate(59.281962, 191.715989)"><g><path d="M 1.453125 -17.3125 L 1.453125 0 L 7.59375 0 L 7.59375 -6.515625 L 13.84375 -6.515625 L 13.84375 0 L 19.984375 0 L 19.984375 -17.3125 L 13.84375 -17.3125 L 13.84375 -11.09375 L 7.59375 -11.09375 L 7.59375 -17.3125 Z M 1.453125 -17.3125 "/></g></g></g><g fill="#ff6442" fill-opacity="1"><g transform="translate(80.717912, 191.715989)"><g><path d="M 1.453125 -17.3125 L 1.453125 0 L 14.171875 0 L 14.171875 -3.890625 L 7.59375 -3.890625 L 7.59375 -6.828125 L 13.671875 -6.828125 L 13.671875 -10.71875 L 7.59375 -10.71875 L 7.59375 -13.421875 L 14.046875 -13.421875 L 14.046875 -17.3125 Z M 1.453125 -17.3125 "/></g></g></g><g fill="#ff6442" fill-opacity="1"><g transform="translate(95.50822, 191.715989)"><g><path d="M 7.515625 -17.3125 L 0.203125 0 L 6.5 0 L 7.515625 -2.671875 L 13.9375 -2.671875 L 14.921875 0 L 21.234375 0 L 13.9375 -17.3125 Z M 10.75 -11.625 L 12.640625 -6.265625 L 8.796875 -6.265625 Z M 10.75 -11.625 "/></g></g></g><g fill="#ff6442" fill-opacity="1"><g transform="translate(116.94417, 191.715989)"><g><path d="M 1.453125 -17.3125 L 1.453125 0 L 9.046875 0 C 10.96875 0 12.4375 -0.125 13.390625 -0.40625 C 16.984375 -1.375 19.015625 -5.09375 19.015625 -8.5 C 19.015625 -10.9375 18.15625 -13.046875 16.46875 -14.765625 C 14.765625 -16.484375 12.34375 -17.3125 9.125 -17.3125 Z M 7.59375 -13.171875 L 8.390625 -13.171875 C 10.4375 -13.171875 11.546875 -12.609375 12.296875 -11.21875 C 12.671875 -10.515625 12.859375 -9.640625 12.859375 -8.59375 C 12.859375 -6.34375 11.890625 -5.046875 10.84375 -4.578125 C 10.3125 -4.34375 9.59375 -4.203125 8.765625 -4.203125 L 7.59375 -4.203125 Z M 7.59375 -13.171875 "/></g></g></g><g fill="#ff6442" fill-opacity="1"><g transform="translate(136.606283, 191.715989)"><g><path d="M 6.703125 -17.53125 C 3.21875 -17.53125 0.75 -15.390625 0.75 -12.171875 C 0.75 -10.5 1.40625 -9 3.828125 -7.5625 C 5.953125 -6.328125 6.5 -5.953125 6.5 -5.265625 C 6.5 -4.640625 5.890625 -4.203125 4.671875 -4.203125 C 3.203125 -4.203125 1.90625 -4.796875 0.671875 -5.625 L 0.671875 -0.96875 C 2.21875 -0.09375 3.953125 0.203125 5.953125 0.203125 C 8.875 0.203125 10.9375 -0.796875 11.890625 -2.5 C 12.375 -3.328125 12.59375 -4.171875 12.59375 -4.96875 C 12.59375 -6.703125 11.71875 -8.25 8.890625 -9.796875 C 6.953125 -10.875 6.390625 -11.375 6.390625 -12.046875 C 6.390625 -12.609375 6.953125 -13.140625 7.8125 -13.140625 C 8.9375 -13.140625 10.34375 -12.375 11.84375 -10.9375 L 11.84375 -15.5625 C 10.5625 -16.765625 8.5625 -17.53125 6.703125 -17.53125 Z M 6.703125 -17.53125 "/></g></g></g><g fill="#ff6442" fill-opacity="1"><g transform="translate(149.847607, 191.715989)"><g><path d="M 1.453125 -17.3125 L 1.453125 0 L 7.59375 0 L 7.59375 -6.515625 L 13.84375 -6.515625 L 13.84375 0 L 19.984375 0 L 19.984375 -17.3125 L 13.84375 -17.3125 L 13.84375 -11.09375 L 7.59375 -11.09375 L 7.59375 -17.3125 Z M 1.453125 -17.3125 "/></g></g></g><g fill="#ff6442" fill-opacity="1"><g transform="translate(171.283562, 191.715989)"><g><path d="M 9.796875 -17.53125 C 3.578125 -17.53125 0.671875 -12.921875 0.671875 -8.671875 C 0.671875 -3.71875 4.296875 0.203125 9.796875 0.203125 C 15.96875 0.203125 18.90625 -4.375 18.90625 -8.671875 C 18.90625 -13.546875 15.34375 -17.53125 9.796875 -17.53125 Z M 6.828125 -8.671875 C 6.828125 -10.921875 7.9375 -12.390625 9.765625 -12.390625 C 11.71875 -12.390625 12.765625 -10.8125 12.765625 -8.671875 C 12.765625 -6.515625 11.671875 -4.953125 9.796875 -4.953125 C 7.921875 -4.953125 6.828125 -6.515625 6.828125 -8.671875 Z M 6.828125 -8.671875 "/></g></g></g><g fill="#ff6442" fill-opacity="1"><g transform="translate(190.870726, 191.715989)"><g><path d="M 0.53125 -17.3125 L 0.53125 -12.921875 L 5.515625 -12.921875 L 5.515625 0 L 11.671875 0 L 11.671875 -12.921875 L 16.671875 -12.921875 L 16.671875 -17.3125 Z M 0.53125 -17.3125 "/></g></g></g><g fill="#ff6442" fill-opacity="1"><g transform="translate(208.059455, 191.715989)"><g/></g></g><g fill="#ff6442" fill-opacity="1"><g transform="translate(216.528903, 191.715989)"><g><path d="M 1.453125 -17.3125 L 1.453125 0 L 7.59375 0 L 7.59375 -6.515625 L 13.84375 -6.515625 L 13.84375 0 L 19.984375 0 L 19.984375 -17.3125 L 13.84375 -17.3125 L 13.84375 -11.09375 L 7.59375 -11.09375 L 7.59375 -17.3125 Z M 1.453125 -17.3125 "/></g></g></g><g fill="#ff6442" fill-opacity="1"><g transform="translate(237.964848, 191.715989)"><g><path d="M 7.515625 -17.3125 L 0.203125 0 L 6.5 0 L 7.515625 -2.671875 L 13.9375 -2.671875 L 14.921875 0 L 21.234375 0 L 13.9375 -17.3125 Z M 10.75 -11.625 L 12.640625 -6.265625 L 8.796875 -6.265625 Z M 10.75 -11.625 "/></g></g></g><g fill="#ff6442" fill-opacity="1"><g transform="translate(259.400803, 191.715989)"><g><path d="M 0.25 -17.3125 L 7.390625 0 L 12.375 0 L 19.34375 -17.3125 L 13.734375 -17.3125 L 10.421875 -8.421875 L 6.890625 -17.3125 Z M 0.25 -17.3125 "/></g></g></g><g fill="#ff6442" fill-opacity="1"><g transform="translate(278.987977, 191.715989)"><g><path d="M 1.453125 -17.3125 L 1.453125 0 L 14.171875 0 L 14.171875 -3.890625 L 7.59375 -3.890625 L 7.59375 -6.828125 L 13.671875 -6.828125 L 13.671875 -10.71875 L 7.59375 -10.71875 L 7.59375 -13.421875 L 14.046875 -13.421875 L 14.046875 -17.3125 Z M 1.453125 -17.3125 "/></g></g></g><g fill="#ff6442" fill-opacity="1"><g transform="translate(293.77828, 191.715989)"><g><path d="M 1.453125 -17.3125 L 1.453125 0 L 7.59375 0 L 7.59375 -8.171875 L 15.140625 0 L 20.484375 0 L 20.484375 -17.3125 L 14.34375 -17.3125 L 14.34375 -9.09375 L 6.75 -17.3125 Z M 1.453125 -17.3125 "/></g></g></g></svg>