<svg xmlns="http://www.w3.org/2000/svg" xmlns:xlink="http://www.w3.org/1999/xlink" zoomAndPan="magnify" preserveAspectRatio="xMidYMid meet" version="1.0" viewBox="59.23 119.64 256.54 126.82"><defs><g/></defs><path stroke-linecap="butt" transform="matrix(0.312356, 0, 0, 0.312356, 37.500002, 143.643478)" fill="none" stroke-linejoin="miter" d="M 74.384237 13.559613 L 74.384237 68.997635 L 94.043287 68.997635 L 94.043287 48.125526 L 114.039993 48.125526 L 114.039993 68.997635 L 133.724055 68.997635 L 133.724055 13.559613 L 114.039993 13.559613 L 114.039993 33.481285 L 94.043287 33.481285 L 94.043287 13.559613 Z M 143.003327 13.559613 L 143.003327 68.997635 L 183.709566 68.997635 L 183.709566 56.516889 L 162.674883 56.516889 L 162.674883 47.162583 L 182.121335 47.162583 L 182.121335 34.681837 L 162.674883 34.681837 L 162.674883 26.040359 L 183.321888 26.040359 L 183.321888 13.559613 Z M 209.796576 13.559613 L 186.360787 68.997635 L 206.507562 68.997635 L 209.796576 60.443697 L 230.35604 60.443697 L 233.457468 68.997635 L 253.716795 68.997635 L 230.35604 13.559613 Z M 220.10132 31.793007 L 226.191623 48.925895 L 213.873453 48.925895 Z M 258.981719 13.559613 L 258.981719 68.997635 L 283.305416 68.997635 C 289.445743 68.997635 294.172919 68.609957 297.199313 67.709542 C 308.729621 64.608114 315.207603 52.677622 315.207603 41.797613 C 315.207603 33.969009 312.493854 27.253418 307.041343 21.725873 C 301.613845 16.210834 293.84777 13.559613 283.53052 13.559613 Z M 278.653275 26.840728 L 281.204449 26.840728 C 287.769972 26.840728 291.284089 28.616545 293.685195 33.0811 C 294.898253 35.332137 295.523541 38.120921 295.523541 41.484969 C 295.523541 48.688285 292.422113 52.852702 289.058065 54.353393 C 287.382293 55.078727 285.056222 55.566452 282.417508 55.566452 L 278.653275 55.566452 Z M 338.730932 12.859291 C 327.600808 12.859291 319.684664 19.724952 319.684664 30.042201 C 319.684664 35.407171 321.76062 40.196876 329.526695 44.761478 C 336.329827 48.76332 338.080633 49.963873 338.080633 52.127369 C 338.080633 54.115784 336.167252 55.566452 332.240444 55.566452 C 327.513268 55.566452 323.361357 53.653071 319.45956 50.989345 L 319.45956 65.871196 C 324.41184 68.684991 329.926879 69.647934 336.329827 69.647934 C 345.684133 69.647934 352.32469 66.446461 355.363589 60.99395 C 356.889292 58.355236 357.589614 55.641486 357.589614 53.077806 C 357.589614 47.562767 354.80083 42.597982 345.759168 37.633196 C 339.531301 34.194113 337.767989 32.593376 337.767989 30.454891 C 337.767989 28.616545 339.531301 26.940774 342.320084 26.940774 C 345.909237 26.940774 350.411309 29.391902 355.21352 33.969009 L 355.21352 19.162193 C 351.124137 15.335431 344.72119 12.859291 338.730932 12.859291 Z M 364.330217 13.559613 L 364.330217 68.997635 L 383.989267 68.997635 L 383.989267 48.125526 L 403.985973 48.125526 L 403.985973 68.997635 L 423.670035 68.997635 L 423.670035 13.559613 L 403.985973 13.559613 L 403.985973 33.481285 L 383.989267 33.481285 L 383.989267 13.559613 Z M 459.661604 12.859291 C 439.752438 12.859291 430.473167 27.641096 430.473167 41.24736 C 430.473167 57.092154 442.078509 69.647934 459.661604 69.647934 C 479.408194 69.647934 488.862547 55.003693 488.862547 41.24736 C 488.862547 25.640175 477.419779 12.859291 459.661604 12.859291 Z M 450.132217 41.24736 C 450.132217 34.044044 453.746381 29.316867 459.586569 29.316867 C 465.814436 29.316867 469.178485 34.356688 469.178485 41.24736 C 469.178485 48.125526 465.664367 53.165346 459.661604 53.165346 C 453.65884 53.165346 450.132217 48.125526 450.132217 41.24736 Z M 492.689309 13.559613 L 492.689309 27.641096 L 508.684172 27.641096 L 508.684172 68.997635 L 528.368234 68.997635 L 528.368234 27.641096 L 544.363097 27.641096 L 544.363097 13.559613 Z M 577.803492 13.559613 L 577.803492 68.997635 L 597.475048 68.997635 L 597.475048 48.125526 L 617.471754 48.125526 L 617.471754 68.997635 L 637.155815 68.997635 L 637.155815 13.559613 L 617.471754 13.559613 L 617.471754 33.481285 L 597.475048 33.481285 L 597.475048 13.559613 Z M 665.856528 13.559613 L 642.433245 68.997635 L 662.58002 68.997635 L 665.856528 60.443697 L 686.428499 60.443697 L 689.529926 68.997635 L 709.776747 68.997635 L 686.428499 13.559613 Z M 676.173778 31.793007 L 682.264081 48.925895 L 669.945911 48.925895 Z M 711.214909 13.559613 L 734.075433 68.997635 L 750.020274 68.997635 L 772.318039 13.559613 L 754.409795 13.559613 L 743.767395 42.047728 L 732.474696 13.559613 Z M 777.770549 13.559613 L 777.770549 68.997635 L 818.464283 68.997635 L 818.464283 56.516889 L 797.429599 56.516889 L 797.429599 47.162583 L 816.876052 47.162583 L 816.876052 34.681837 L 797.429599 34.681837 L 797.429599 26.040359 L 818.076604 26.040359 L 818.076604 13.559613 Z M 825.117346 13.559613 L 825.117346 68.997635 L 844.776396 68.997635 L 844.776396 42.848097 L 868.937519 68.997635 L 886.070406 68.997635 L 886.070406 13.559613 L 866.386344 13.559613 L 866.386344 39.884232 L 842.062647 13.559613 Z M 825.117346 13.559613 " stroke="#ff6442" stroke-width="2.999993" stroke-opacity="1" stroke-miterlimit="4"/><path stroke-linecap="butt" transform="matrix(0.312356, 0, 0, 0.312356, 37.500002, 117.12353)" fill="none" stroke-linejoin="miter" d="M 74.384237 13.560947 L 74.384237 68.998969 L 94.043287 68.998969 L 94.043287 48.12686 L 114.039993 48.12686 L 114.039993 68.998969 L 133.724055 68.998969 L 133.724055 13.560947 L 114.039993 13.560947 L 114.039993 33.482618 L 94.043287 33.482618 L 94.043287 13.560947 Z M 143.003327 13.560947 L 143.003327 68.998969 L 183.709566 68.998969 L 183.709566 56.518223 L 162.674883 56.518223 L 162.674883 47.163917 L 182.121335 47.163917 L 182.121335 34.683171 L 162.674883 34.683171 L 162.674883 26.041693 L 183.321888 26.041693 L 183.321888 13.560947 Z M 209.796576 13.560947 L 186.360787 68.998969 L 206.507562 68.998969 L 209.796576 60.445031 L 230.35604 60.445031 L 233.457468 68.998969 L 253.716795 68.998969 L 230.35604 13.560947 Z M 220.10132 31.794341 L 226.191623 48.927228 L 213.873453 48.927228 Z M 258.981719 13.560947 L 258.981719 68.998969 L 283.305416 68.998969 C 289.445743 68.998969 294.172919 68.61129 297.199313 67.710876 C 308.729621 64.609448 315.207603 52.678956 315.207603 41.798947 C 315.207603 33.970343 312.493854 27.242246 307.041343 21.714701 C 301.613845 16.212168 293.84777 13.560947 283.53052 13.560947 Z M 278.653275 26.842061 L 281.204449 26.842061 C 287.769972 26.842061 291.284089 28.617879 293.685195 33.082434 C 294.898253 35.33347 295.523541 38.122254 295.523541 41.486303 C 295.523541 48.689619 292.422113 52.854036 289.058065 54.354727 C 287.382293 55.080061 285.056222 55.567786 282.417508 55.567786 L 278.653275 55.567786 Z M 338.730932 12.860625 C 327.600808 12.860625 319.684664 19.726286 319.684664 30.043535 C 319.684664 35.408505 321.76062 40.19821 329.526695 44.762811 C 336.329827 48.764654 338.080633 49.965206 338.080633 52.128702 C 338.080633 54.117118 336.167252 55.567786 332.240444 55.567786 C 327.513268 55.567786 323.361357 53.654405 319.45956 50.990678 L 319.45956 65.872529 C 324.41184 68.686325 329.926879 69.649268 336.329827 69.649268 C 345.684133 69.649268 352.32469 66.447794 355.363589 60.995284 C 356.889292 58.356569 357.589614 55.64282 357.589614 53.07914 C 357.589614 47.551595 354.80083 42.599315 345.759168 37.63453 C 339.531301 34.195447 337.767989 32.59471 337.767989 30.456225 C 337.767989 28.617879 339.531301 26.929602 342.320084 26.929602 C 345.909237 26.929602 350.411309 29.393236 355.21352 33.970343 L 355.21352 19.163526 C 351.124137 15.336765 344.72119 12.860625 338.730932 12.860625 Z M 364.330217 13.560947 L 364.330217 68.998969 L 383.989267 68.998969 L 383.989267 48.12686 L 403.985973 48.12686 L 403.985973 68.998969 L 423.670035 68.998969 L 423.670035 13.560947 L 403.985973 13.560947 L 403.985973 33.482618 L 383.989267 33.482618 L 383.989267 13.560947 Z M 459.661604 12.860625 C 439.752438 12.860625 430.473167 27.64243 430.473167 41.248694 C 430.473167 57.093488 442.078509 69.649268 459.661604 69.649268 C 479.408194 69.649268 488.862547 54.992521 488.862547 41.248694 C 488.862547 25.641509 477.419779 12.860625 459.661604 12.860625 Z M 450.132217 41.248694 C 450.132217 34.045377 453.746381 29.318201 459.586569 29.318201 C 465.814436 29.318201 469.178485 34.358021 469.178485 41.248694 C 469.178485 48.12686 465.664367 53.16668 459.661604 53.16668 C 453.65884 53.16668 450.132217 48.12686 450.132217 41.248694 Z M 492.689309 13.560947 L 492.689309 27.64243 L 508.684172 27.64243 L 508.684172 68.998969 L 528.368234 68.998969 L 528.368234 27.64243 L 544.363097 27.64243 L 544.363097 13.560947 Z M 577.803492 13.560947 L 577.803492 68.998969 L 597.475048 68.998969 L 597.475048 48.12686 L 617.471754 48.12686 L 617.471754 68.998969 L 637.155815 68.998969 L 637.155815 13.560947 L 617.471754 13.560947 L 617.471754 33.482618 L 597.475048 33.482618 L 597.475048 13.560947 Z M 665.856528 13.560947 L 642.433245 68.998969 L 662.58002 68.998969 L 665.856528 60.445031 L 686.428499 60.445031 L 689.529926 68.998969 L 709.776747 68.998969 L 686.428499 13.560947 Z M 676.173778 31.794341 L 682.264081 48.927228 L 669.945911 48.927228 Z M 711.214909 13.560947 L 734.075433 68.998969 L 750.020274 68.998969 L 772.318039 13.560947 L 754.409795 13.560947 L 743.767395 42.049062 L 732.474696 13.560947 Z M 777.770549 13.560947 L 777.770549 68.998969 L 818.464283 68.998969 L 818.464283 56.518223 L 797.429599 56.518223 L 797.429599 47.163917 L 816.876052 47.163917 L 816.876052 34.683171 L 797.429599 34.683171 L 797.429599 26.041693 L 818.076604 26.041693 L 818.076604 13.560947 Z M 825.117346 13.560947 L 825.117346 68.998969 L 844.776396 68.998969 L 844.776396 42.849431 L 868.937519 68.998969 L 886.070406 68.998969 L 886.070406 13.560947 L 866.386344 13.560947 L 866.386344 39.885566 L 842.062647 13.560947 Z M 825.117346 13.560947 " stroke="#ff6442" stroke-width="2.999993" stroke-opacity="1" stroke-miterlimit="4"/><g fill="#ff6442" fill-opacity="1"><g transform="translate(59.281962, 191.715989)"><g><path d="M 1.453125 -17.3125 L 1.453125 0 L 7.59375 0 L 7.59375 -6.515625 L 13.84375 -6.515625 L 13.84375 0 L 19.984375 0 L 19.984375 -17.3125 L 13.84375 -17.3125 L 13.84375 -11.09375 L 7.59375 -11.09375 L 7.59375 -17.3125 Z M 1.453125 -17.3125 "/></g></g></g><g fill="#ff6442" fill-opacity="1"><g transform="translate(80.717912, 191.715989)"><g><path d="M 1.453125 -17.3125 L 1.453125 0 L 14.171875 0 L 14.171875 -3.890625 L 7.59375 -3.890625 L 7.59375 -6.828125 L 13.671875 -6.828125 L 13.671875 -10.71875 L 7.59375 -10.71875 L 7.59375 -13.421875 L 14.046875 -13.421875 L 14.046875 -17.3125 Z M 1.453125 -17.3125 "/></g></g></g><g fill="#ff6442" fill-opacity="1"><g transform="translate(95.50822, 191.715989)"><g><path d="M 7.515625 -17.3125 L 0.203125 0 L 6.5 0 L 7.515625 -2.671875 L 13.9375 -2.671875 L 14.921875 0 L 21.234375 0 L 13.9375 -17.3125 Z M 10.75 -11.625 L 12.640625 -6.265625 L 8.796875 -6.265625 Z M 10.75 -11.625 "/></g></g></g><g fill="#ff6442" fill-opacity="1"><g transform="translate(116.94417, 191.715989)"><g><path d="M 1.453125 -17.3125 L 1.453125 0 L 9.046875 0 C 10.96875 0 12.4375 -0.125 13.390625 -0.40625 C 16.984375 -1.375 19.015625 -5.09375 19.015625 -8.5 C 19.015625 -10.9375 18.15625 -13.046875 16.46875 -14.765625 C 14.765625 -16.484375 12.34375 -17.3125 9.125 -17.3125 Z M 7.59375 -13.171875 L 8.390625 -13.171875 C 10.4375 -13.171875 11.546875 -12.609375 12.296875 -11.21875 C 12.671875 -10.515625 12.859375 -9.640625 12.859375 -8.59375 C 12.859375 -6.34375 11.890625 -5.046875 10.84375 -4.578125 C 10.3125 -4.34375 9.59375 -4.203125 8.765625 -4.203125 L 7.59375 -4.203125 Z M 7.59375 -13.171875 "/></g></g></g><g fill="#ff6442" fill-opacity="1"><g transform="translate(136.606283, 191.715989)"><g><path d="M 6.703125 -17.53125 C 3.21875 -17.53125 0.75 -15.390625 0.75 -12.171875 C 0.75 -10.5 1.40625 -9 3.828125 -7.5625 C 5.953125 -6.328125 6.5 -5.953125 6.5 -5.265625 C 6.5 -4.640625 5.890625 -4.203125 4.671875 -4.203125 C 3.203125 -4.203125 1.90625 -4.796875 0.671875 -5.625 L 0.671875 -0.96875 C 2.21875 -0.09375 3.953125 0.203125 5.953125 0.203125 C 8.875 0.203125 10.9375 -0.796875 11.890625 -2.5 C 12.375 -3.328125 12.59375 -4.171875 12.59375 -4.96875 C 12.59375 -6.703125 11.71875 -8.25 8.890625 -9.796875 C 6.953125 -10.875 6.390625 -11.375 6.390625 -12.046875 C 6.390625 -12.609375 6.953125 -13.140625 7.8125 -13.140625 C 8.9375 -13.140625 10.34375 -12.375 11.84375 -10.9375 L 11.84375 -15.5625 C 10.5625 -16.765625 8.5625 -17.53125 6.703125 -17.53125 Z M 6.703125 -17.53125 "/></g></g></g><g fill="#ff6442" fill-opacity="1"><g transform="translate(149.847607, 191.715989)"><g><path d="M 1.453125 -17.3125 L 1.453125 0 L 7.59375 0 L 7.59375 -6.515625 L 13.84375 -6.515625 L 13.84375 0 L 19.984375 0 L 19.984375 -17.3125 L 13.84375 -17.3125 L 13.84375 -11.09375 L 7.59375 -11.09375 L 7.59375 -17.3125 Z M 1.453125 -17.3125 "/></g></g></g><g fill="#ff6442" fill-opacity="1"><g transform="translate(171.283562, 191.715989)"><g><path d="M 9.796875 -17.53125 C 3.578125 -17.53125 0.671875 -12.921875 0.671875 -8.671875 C 0.671875 -3.71875 4.296875 0.203125 9.796875 0.203125 C 15.96875 0.203125 18.90625 -4.375 18.90625 -8.671875 C 18.90625 -13.546875 15.34375 -17.53125 9.796875 -17.53125 Z M 6.828125 -8.671875 C 6.828125 -10.921875 7.9375 -12.390625 9.765625 -12.390625 C 11.71875 -12.390625 12.765625 -10.8125 12.765625 -8.671875 C 12.765625 -6.515625 11.671875 -4.953125 9.796875 -4.953125 C 7.921875 -4.953125 6.828125 -6.515625 6.828125 -8.671875 Z M 6.828125 -8.671875 "/></g></g></g><g fill="#ff6442" fill-opacity="1"><g transform="translate(190.870726, 191.715989)"><g><path d="M 0.53125 -17.3125 L 0.53125 -12.921875 L 5.515625 -12.921875 L 5.515625 0 L 11.671875 0 L 11.671875 -12.921875 L 16.671875 -12.921875 L 16.671875 -17.3125 Z M 0.53125 -17.3125 "/></g></g></g><g fill="#ff6442" fill-opacity="1"><g transform="translate(208.059455, 191.715989)"><g/></g></g><g fill="#ff6442" fill-opacity="1"><g transform="translate(216.528903, 191.715989)"><g><path d="M 1.453125 -17.3125 L 1.453125 0 L 7.59375 0 L 7.59375 -6.515625 L 13.84375 -6.515625 L 13.84375 0 L 19.984375 0 L 19.984375 -17.3125 L 13.84375 -17.3125 L 13.84375 -11.09375 L 7.59375 -11.09375 L 7.59375 -17.3125 Z M 1.453125 -17.3125 "/></g></g></g><g fill="#ff6442" fill-opacity="1"><g transform="translate(237.964848, 191.715989)"><g><path d="M 7.515625 -17.3125 L 0.203125 0 L 6.5 0 L 7.515625 -2.671875 L 13.9375 -2.671875 L 14.921875 0 L 21.234375 0 L 13.9375 -17.3125 Z M 10.75 -11.625 L 12.640625 -6.265625 L 8.796875 -6.265625 Z M 10.75 -11.625 "/></g></g></g><g fill="#ff6442" fill-opacity="1"><g transform="translate(259.400803, 191.715989)"><g><path d="M 0.25 -17.3125 L 7.390625 0 L 12.375 0 L 19.34375 -17.3125 L 13.734375 -17.3125 L 10.421875 -8.421875 L 6.890625 -17.3125 Z M 0.25 -17.3125 "/></g></g></g><g fill="#ff6442" fill-opacity="1"><g transform="translate(278.987977, 191.715989)"><g><path d="M 1.453125 -17.3125 L 1.453125 0 L 14.171875 0 L 14.171875 -3.890625 L 7.59375 -3.890625 L 7.59375 -6.828125 L 13.671875 -6.828125 L 13.671875 -10.71875 L 7.59375 -10.71875 L 7.59375 -13.421875 L 14.046875 -13.421875 L 14.046875 -17.3125 Z M 1.453125 -17.3125 "/></g></g></g><g fill="#ff6442" fill-opacity="1"><g transform="translate(293.77828, 191.715989)"><g><path d="M 1.453125 -17.3125 L 1.453125 0 L 7.59375 0 L 7.59375 -8.171875 L 15.140625 0 L 20.484375 0 L 20.484375 -17.3125 L 14.34375 -17.3125 L 14.34375 -9.09375 L 6.75 -17.3125 Z M 1.453125 -17.3125 "/></g></g></g><path stroke-linecap="butt" transform="matrix(0.312356, 0, 0, 0.312356, 37.500002, 196.683371)" fill="none" stroke-linejoin="miter" d="M 74.384237 13.556954 L 74.384237 68.994975 L 94.043287 68.994975 L 94.043287 48.122866 L 114.039993 48.122866 L 114.039993 68.994975 L 133.724055 68.994975 L 133.724055 13.556954 L 114.039993 13.556954 L 114.039993 33.478625 L 94.043287 33.478625 L 94.043287 13.556954 Z M 143.003327 13.556954 L 143.003327 68.994975 L 183.709566 68.994975 L 183.709566 56.526735 L 162.674883 56.526735 L 162.674883 47.172429 L 182.121335 47.172429 L 182.121335 34.691683 L 162.674883 34.691683 L 162.674883 26.037699 L 183.321888 26.037699 L 183.321888 13.556954 Z M 209.796576 13.556954 L 186.360787 68.994975 L 206.507562 68.994975 L 209.796576 60.441037 L 230.35604 60.441037 L 233.457468 68.994975 L 253.716795 68.994975 L 230.35604 13.556954 Z M 220.10132 31.802853 L 226.191623 48.923235 L 213.873453 48.923235 Z M 258.981719 13.556954 L 258.981719 68.994975 L 283.305416 68.994975 C 289.445743 68.994975 294.172919 68.607297 297.199313 67.706882 C 308.729621 64.605454 315.207603 52.674962 315.207603 41.794953 C 315.207603 33.966349 312.493854 27.250758 307.041343 21.723213 C 301.613845 16.208174 293.84777 13.556954 283.53052 13.556954 Z M 278.653275 26.838068 L 281.204449 26.838068 C 287.769972 26.838068 291.284089 28.613885 293.685195 33.090946 C 294.898253 35.329477 295.523541 38.130766 295.523541 41.482309 C 295.523541 48.685626 292.422113 52.850043 289.058065 54.350734 C 287.382293 55.076067 285.056222 55.563792 282.417508 55.563792 L 278.653275 55.563792 Z M 338.730932 12.856631 C 327.600808 12.856631 319.684664 19.734798 319.684664 30.039542 C 319.684664 35.404511 321.76062 40.194216 329.526695 44.758818 C 336.329827 48.773166 338.080633 49.961213 338.080633 52.124709 C 338.080633 54.113124 336.167252 55.563792 332.240444 55.563792 C 327.513268 55.563792 323.361357 53.650411 319.45956 50.999191 L 319.45956 65.881042 C 324.41184 68.682331 329.926879 69.645275 336.329827 69.645275 C 345.684133 69.645275 352.32469 66.443801 355.363589 60.991291 C 356.889292 58.352576 357.589614 55.638826 357.589614 53.087652 C 357.589614 47.560107 354.80083 42.595322 345.759168 37.630536 C 339.531301 34.203959 337.767989 32.603222 337.767989 30.452232 C 337.767989 28.613885 339.531301 26.938114 342.320084 26.938114 C 345.909237 26.938114 350.411309 29.401748 355.21352 33.966349 L 355.21352 19.159533 C 351.124137 15.332771 344.72119 12.856631 338.730932 12.856631 Z M 364.330217 13.556954 L 364.330217 68.994975 L 383.989267 68.994975 L 383.989267 48.122866 L 403.985973 48.122866 L 403.985973 68.994975 L 423.670035 68.994975 L 423.670035 13.556954 L 403.985973 13.556954 L 403.985973 33.478625 L 383.989267 33.478625 L 383.989267 13.556954 Z M 459.661604 12.856631 C 439.752438 12.856631 430.473167 27.638436 430.473167 41.2447 C 430.473167 57.089494 442.078509 69.645275 459.661604 69.645275 C 479.408194 69.645275 488.862547 55.001033 488.862547 41.2447 C 488.862547 25.650021 477.419779 12.856631 459.661604 12.856631 Z M 450.132217 41.2447 C 450.132217 34.041384 453.746381 29.314208 459.586569 29.314208 C 465.814436 29.314208 469.178485 34.354028 469.178485 41.2447 C 469.178485 48.122866 465.664367 53.162687 459.661604 53.162687 C 453.65884 53.162687 450.132217 48.122866 450.132217 41.2447 Z M 492.689309 13.556954 L 492.689309 27.638436 L 508.684172 27.638436 L 508.684172 68.994975 L 528.368234 68.994975 L 528.368234 27.638436 L 544.363097 27.638436 L 544.363097 13.556954 Z M 577.803492 13.556954 L 577.803492 68.994975 L 597.475048 68.994975 L 597.475048 48.122866 L 617.471754 48.122866 L 617.471754 68.994975 L 637.155815 68.994975 L 637.155815 13.556954 L 617.471754 13.556954 L 617.471754 33.478625 L 597.475048 33.478625 L 597.475048 13.556954 Z M 665.856528 13.556954 L 642.433245 68.994975 L 662.58002 68.994975 L 665.856528 60.441037 L 686.428499 60.441037 L 689.529926 68.994975 L 709.776747 68.994975 L 686.428499 13.556954 Z M 676.173778 31.802853 L 682.264081 48.923235 L 669.945911 48.923235 Z M 711.214909 13.556954 L 734.075433 68.994975 L 750.020274 68.994975 L 772.318039 13.556954 L 754.409795 13.556954 L 743.767395 42.045068 L 732.474696 13.556954 Z M 777.770549 13.556954 L 777.770549 68.994975 L 818.464283 68.994975 L 818.464283 56.526735 L 797.429599 56.526735 L 797.429599 47.172429 L 816.876052 47.172429 L 816.876052 34.691683 L 797.429599 34.691683 L 797.429599 26.037699 L 818.076604 26.037699 L 818.076604 13.556954 Z M 825.117346 13.556954 L 825.117346 68.994975 L 844.776396 68.994975 L 844.776396 42.845437 L 868.937519 68.994975 L 886.070406 68.994975 L 886.070406 13.556954 L 866.386344 13.556954 L 866.386344 39.881572 L 842.062647 13.556954 Z M 825.117346 13.556954 " stroke="#ff6442" stroke-width="2.999993" stroke-opacity="1" stroke-miterlimit="4"/><path stroke-linecap="butt" transform="matrix(0.312356, 0, 0, 0.312356, 37.500002, 223.203309)" fill="none" stroke-linejoin="miter" d="M 74.384237 13.555651 L 74.384237 69.006178 L 94.043287 69.006178 L 94.043287 48.121563 L 114.039993 48.121563 L 114.039993 69.006178 L 133.724055 69.006178 L 133.724055 13.555651 L 114.039993 13.555651 L 114.039993 33.477322 L 94.043287 33.477322 L 94.043287 13.555651 Z M 143.003327 13.555651 L 143.003327 69.006178 L 183.709566 69.006178 L 183.709566 56.525432 L 162.674883 56.525432 L 162.674883 47.171126 L 182.121335 47.171126 L 182.121335 34.69038 L 162.674883 34.69038 L 162.674883 26.036396 L 183.321888 26.036396 L 183.321888 13.555651 Z M 209.796576 13.555651 L 186.360787 69.006178 L 206.507562 69.006178 L 209.796576 60.45224 L 230.35604 60.45224 L 233.457468 69.006178 L 253.716795 69.006178 L 230.35604 13.555651 Z M 220.10132 31.80155 L 226.191623 48.921932 L 213.873453 48.921932 Z M 258.981719 13.555651 L 258.981719 69.006178 L 283.305416 69.006178 C 289.445743 69.006178 294.172919 68.605994 297.199313 67.705579 C 308.729621 64.604151 315.207603 52.673659 315.207603 41.79365 C 315.207603 33.965046 312.493854 27.249455 307.041343 21.72191 C 301.613845 16.219377 293.84777 13.555651 283.53052 13.555651 Z M 278.653275 26.836765 L 281.204449 26.836765 C 287.769972 26.836765 291.284089 28.612582 293.685195 33.089643 C 294.898253 35.328174 295.523541 38.129463 295.523541 41.481006 C 295.523541 48.684322 292.422113 52.84874 289.058065 54.34943 C 287.382293 55.074764 285.056222 55.562489 282.417508 55.562489 L 278.653275 55.562489 Z M 338.730932 12.855328 C 327.600808 12.855328 319.684664 19.733495 319.684664 30.038239 C 319.684664 35.415714 321.76062 40.192913 329.526695 44.77002 C 336.329827 48.771863 338.080633 49.95991 338.080633 52.123406 C 338.080633 54.124327 336.167252 55.562489 332.240444 55.562489 C 327.513268 55.562489 323.361357 53.649108 319.45956 50.997888 L 319.45956 65.879739 C 324.41184 68.693534 329.926879 69.643971 336.329827 69.643971 C 345.684133 69.643971 352.32469 66.442498 355.363589 60.989988 C 356.889292 58.351273 357.589614 55.637523 357.589614 53.086349 C 357.589614 47.558804 354.80083 42.594019 345.759168 37.641739 C 339.531301 34.202656 337.767989 32.601919 337.767989 30.450929 C 337.767989 28.612582 339.531301 26.936811 342.320084 26.936811 C 345.909237 26.936811 350.411309 29.400445 355.21352 33.965046 L 355.21352 19.15823 C 351.124137 15.331468 344.72119 12.855328 338.730932 12.855328 Z M 364.330217 13.555651 L 364.330217 69.006178 L 383.989267 69.006178 L 383.989267 48.121563 L 403.985973 48.121563 L 403.985973 69.006178 L 423.670035 69.006178 L 423.670035 13.555651 L 403.985973 13.555651 L 403.985973 33.477322 L 383.989267 33.477322 L 383.989267 13.555651 Z M 459.661604 12.855328 C 439.752438 12.855328 430.473167 27.637133 430.473167 41.243397 C 430.473167 57.088191 442.078509 69.643971 459.661604 69.643971 C 479.408194 69.643971 488.862547 54.99973 488.862547 41.243397 C 488.862547 25.648718 477.419779 12.855328 459.661604 12.855328 Z M 450.132217 41.243397 C 450.132217 34.040081 453.746381 29.312905 459.586569 29.312905 C 465.814436 29.312905 469.178485 34.352725 469.178485 41.243397 C 469.178485 48.121563 465.664367 53.161384 459.661604 53.161384 C 453.65884 53.161384 450.132217 48.121563 450.132217 41.243397 Z M 492.689309 13.555651 L 492.689309 27.637133 L 508.684172 27.637133 L 508.684172 69.006178 L 528.368234 69.006178 L 528.368234 27.637133 L 544.363097 27.637133 L 544.363097 13.555651 Z M 577.803492 13.555651 L 577.803492 69.006178 L 597.475048 69.006178 L 597.475048 48.121563 L 617.471754 48.121563 L 617.471754 69.006178 L 637.155815 69.006178 L 637.155815 13.555651 L 617.471754 13.555651 L 617.471754 33.477322 L 597.475048 33.477322 L 597.475048 13.555651 Z M 665.856528 13.555651 L 642.433245 69.006178 L 662.58002 69.006178 L 665.856528 60.45224 L 686.428499 60.45224 L 689.529926 69.006178 L 709.776747 69.006178 L 686.428499 13.555651 Z M 676.173778 31.80155 L 682.264081 48.921932 L 669.945911 48.921932 Z M 711.214909 13.555651 L 734.075433 69.006178 L 750.020274 69.006178 L 772.318039 13.555651 L 754.409795 13.555651 L 743.767395 42.056271 L 732.474696 13.555651 Z M 777.770549 13.555651 L 777.770549 69.006178 L 818.464283 69.006178 L 818.464283 56.525432 L 797.429599 56.525432 L 797.429599 47.171126 L 816.876052 47.171126 L 816.876052 34.69038 L 797.429599 34.69038 L 797.429599 26.036396 L 818.076604 26.036396 L 818.076604 13.555651 Z M 825.117346 13.555651 L 825.117346 69.006178 L 844.776396 69.006178 L 844.776396 42.85664 L 868.937519 69.006178 L 886.070406 69.006178 L 886.070406 13.555651 L 866.386344 13.555651 L 866.386344 39.880269 L 842.062647 13.555651 Z M 825.117346 13.555651 " stroke="#ff6442" stroke-width="2.999993" stroke-opacity="1" stroke-miterlimit="4"/></svg>