<svg xmlns="http://www.w3.org/2000/svg" xmlns:xlink="http://www.w3.org/1999/xlink" width="500" zoomAndPan="magnify" viewBox="0 0 375 374.999991" height="500" preserveAspectRatio="xMidYMid meet" version="1.0"><defs><g/></defs><path stroke-linecap="butt" transform="matrix(0.312356, 0, 0, 0.312356, 37.500002, 143.643478)" fill="none" stroke-linejoin="miter" d="M 132.085801 13.559613 L 154.946325 68.997635 L 170.891165 68.997635 L 193.18893 13.559613 L 175.280686 13.559613 L 164.638287 42.047728 L 153.345588 13.559613 Z M 218.062881 13.559613 L 194.639598 68.997635 L 214.786373 68.997635 L 218.062881 60.443697 L 238.634852 60.443697 L 241.73628 68.997635 L 261.9831 68.997635 L 238.634852 13.559613 Z M 228.380131 31.793007 L 234.470435 48.925895 L 222.152264 48.925895 Z M 267.26053 13.559613 L 267.26053 68.997635 L 307.491551 68.997635 L 307.491551 54.916152 L 286.932086 54.916152 L 286.932086 13.559613 Z M 340.044037 12.859291 C 320.134871 12.859291 310.855599 27.641096 310.855599 41.24736 C 310.855599 57.092154 322.448436 69.647934 340.044037 69.647934 C 359.790627 69.647934 369.24498 55.003693 369.24498 41.24736 C 369.24498 25.640175 357.802212 12.859291 340.044037 12.859291 Z M 330.51465 41.24736 C 330.51465 34.044044 334.128813 29.316867 339.969002 29.316867 C 346.196869 29.316867 349.560918 34.356688 349.560918 41.24736 C 349.560918 48.125526 346.0468 53.165346 340.044037 53.165346 C 334.041273 53.165346 330.51465 48.125526 330.51465 41.24736 Z M 376.048111 13.559613 L 376.048111 68.997635 L 395.707162 68.997635 L 395.707162 45.649386 C 400.509373 45.649386 402.422753 47.087548 405.061468 51.477069 C 406.349561 53.653071 407.875263 56.679464 409.551035 60.681306 L 413.065153 68.997635 L 432.574134 68.997635 L 425.233254 53.315415 C 422.344425 47.250123 419.70571 43.323316 416.841891 42.360372 C 422.344425 40.196876 425.620933 35.332137 425.620933 29.879627 C 425.620933 23.726794 423.144793 19.087158 417.066995 15.960719 C 414.028096 14.359982 409.551035 13.559613 403.460731 13.559613 Z M 395.707162 22.851391 L 398.033233 22.851391 C 403.948456 22.851391 406.662205 24.764772 406.662205 29.654523 C 406.662205 33.969009 404.186065 36.520184 397.795623 36.520184 L 395.707162 36.520184 Z M 456.822797 13.559613 L 433.387008 68.997635 L 453.546289 68.997635 L 456.822797 60.443697 L 477.382262 60.443697 L 480.496195 68.997635 L 500.743016 68.997635 L 477.382262 13.559613 Z M 467.127541 31.793007 L 473.23035 48.925895 L 460.899674 48.925895 Z M 506.020446 13.559613 L 506.020446 68.997635 L 525.679496 68.997635 L 525.679496 42.848097 L 549.840619 68.997635 L 566.961 68.997635 L 566.961 13.559613 L 547.276939 13.559613 L 547.276939 39.884232 L 522.965747 13.559613 Z M 573.276408 13.559613 L 573.276408 27.641096 L 589.271271 27.641096 L 589.271271 68.997635 L 608.955333 68.997635 L 608.955333 27.641096 L 624.950196 27.641096 L 624.950196 13.559613 Z M 675.185823 12.859291 C 664.055699 12.859291 656.139555 19.724952 656.139555 30.042201 C 656.139555 35.407171 658.21551 40.196876 665.981586 44.761478 C 672.784718 48.76332 674.535524 49.963873 674.535524 52.127369 C 674.535524 54.115784 672.622143 55.566452 668.695335 55.566452 C 663.968159 55.566452 659.816247 53.653071 655.901945 50.989345 L 655.901945 65.871196 C 660.866731 68.684991 666.369264 69.647934 672.784718 69.647934 C 682.139024 69.647934 688.779581 66.446461 691.81848 60.99395 C 693.344182 58.355236 694.044505 55.641486 694.044505 53.077806 C 694.044505 47.562767 691.255721 42.597982 682.214058 37.633196 C 675.986191 34.194113 674.22288 32.593376 674.22288 30.454891 C 674.22288 28.616545 675.986191 26.940774 678.774975 26.940774 C 682.364128 26.940774 686.8662 29.391902 691.668411 33.969009 L 691.668411 19.162193 C 687.579028 15.335431 681.176081 12.859291 675.185823 12.859291 Z M 701.660511 13.559613 L 701.660511 68.997635 L 721.319561 68.997635 L 721.319561 13.559613 Z M 728.447843 13.559613 L 728.447843 27.641096 L 744.442706 27.641096 L 744.442706 68.997635 L 764.126768 68.997635 L 764.126768 27.641096 L 780.121631 27.641096 L 780.121631 13.559613 Z M 786.437039 13.559613 L 786.437039 68.997635 L 827.143278 68.997635 L 827.143278 56.516889 L 806.108595 56.516889 L 806.108595 47.162583 L 825.555047 47.162583 L 825.555047 34.681837 L 806.108595 34.681837 L 806.108595 26.040359 L 826.7556 26.040359 L 826.7556 13.559613 Z M 786.437039 13.559613 " stroke="#ff6442" stroke-width="2.999993" stroke-opacity="1" stroke-miterlimit="4"/><path stroke-linecap="butt" transform="matrix(0.312356, 0, 0, 0.312356, 37.500002, 117.12353)" fill="none" stroke-linejoin="miter" d="M 132.085801 13.560947 L 154.946325 68.998969 L 170.891165 68.998969 L 193.18893 13.560947 L 175.280686 13.560947 L 164.638287 42.049062 L 153.345588 13.560947 Z M 218.062881 13.560947 L 194.639598 68.998969 L 214.786373 68.998969 L 218.062881 60.445031 L 238.634852 60.445031 L 241.73628 68.998969 L 261.9831 68.998969 L 238.634852 13.560947 Z M 228.380131 31.794341 L 234.470435 48.927228 L 222.152264 48.927228 Z M 267.26053 13.560947 L 267.26053 68.998969 L 307.491551 68.998969 L 307.491551 54.917486 L 286.932086 54.917486 L 286.932086 13.560947 Z M 340.044037 12.860625 C 320.134871 12.860625 310.855599 27.64243 310.855599 41.248694 C 310.855599 57.093488 322.448436 69.649268 340.044037 69.649268 C 359.790627 69.649268 369.24498 54.992521 369.24498 41.248694 C 369.24498 25.641509 357.802212 12.860625 340.044037 12.860625 Z M 330.51465 41.248694 C 330.51465 34.045377 334.128813 29.318201 339.969002 29.318201 C 346.196869 29.318201 349.560918 34.358021 349.560918 41.248694 C 349.560918 48.12686 346.0468 53.16668 340.044037 53.16668 C 334.041273 53.16668 330.51465 48.12686 330.51465 41.248694 Z M 376.048111 13.560947 L 376.048111 68.998969 L 395.707162 68.998969 L 395.707162 45.638214 C 400.509373 45.638214 402.422753 47.088882 405.061468 51.478403 C 406.349561 53.654405 407.875263 56.680798 409.551035 60.68264 L 413.065153 68.998969 L 432.574134 68.998969 L 425.233254 53.316749 C 422.344425 47.238951 419.70571 43.324649 416.841891 42.361706 C 422.344425 40.19821 425.620933 35.33347 425.620933 29.88096 C 425.620933 23.728128 423.144793 19.088492 417.066995 15.962053 C 414.028096 14.361316 409.551035 13.560947 403.460731 13.560947 Z M 395.707162 22.852725 L 398.033233 22.852725 C 403.948456 22.852725 406.662205 24.766106 406.662205 29.643351 C 406.662205 33.970343 404.186065 36.521517 397.795623 36.521517 L 395.707162 36.521517 Z M 456.822797 13.560947 L 433.387008 68.998969 L 453.546289 68.998969 L 456.822797 60.445031 L 477.382262 60.445031 L 480.496195 68.998969 L 500.743016 68.998969 L 477.382262 13.560947 Z M 467.127541 31.794341 L 473.23035 48.927228 L 460.899674 48.927228 Z M 506.020446 13.560947 L 506.020446 68.998969 L 525.679496 68.998969 L 525.679496 42.849431 L 549.840619 68.998969 L 566.961 68.998969 L 566.961 13.560947 L 547.276939 13.560947 L 547.276939 39.885566 L 522.965747 13.560947 Z M 573.276408 13.560947 L 573.276408 27.64243 L 589.271271 27.64243 L 589.271271 68.998969 L 608.955333 68.998969 L 608.955333 27.64243 L 624.950196 27.64243 L 624.950196 13.560947 Z M 675.185823 12.860625 C 664.055699 12.860625 656.139555 19.726286 656.139555 30.043535 C 656.139555 35.408505 658.21551 40.19821 665.981586 44.762811 C 672.784718 48.764654 674.535524 49.965206 674.535524 52.128702 C 674.535524 54.117118 672.622143 55.567786 668.695335 55.567786 C 663.968159 55.567786 659.816247 53.654405 655.901945 50.990678 L 655.901945 65.872529 C 660.866731 68.686325 666.369264 69.649268 672.784718 69.649268 C 682.139024 69.649268 688.779581 66.447794 691.81848 60.995284 C 693.344182 58.356569 694.044505 55.64282 694.044505 53.07914 C 694.044505 47.551595 691.255721 42.599315 682.214058 37.63453 C 675.986191 34.195447 674.22288 32.59471 674.22288 30.456225 C 674.22288 28.617879 675.986191 26.929602 678.774975 26.929602 C 682.364128 26.929602 686.8662 29.393236 691.668411 33.970343 L 691.668411 19.163526 C 687.579028 15.336765 681.176081 12.860625 675.185823 12.860625 Z M 701.660511 13.560947 L 701.660511 68.998969 L 721.319561 68.998969 L 721.319561 13.560947 Z M 728.447843 13.560947 L 728.447843 27.64243 L 744.442706 27.64243 L 744.442706 68.998969 L 764.126768 68.998969 L 764.126768 27.64243 L 780.121631 27.64243 L 780.121631 13.560947 Z M 786.437039 13.560947 L 786.437039 68.998969 L 827.143278 68.998969 L 827.143278 56.518223 L 806.108595 56.518223 L 806.108595 47.163917 L 825.555047 47.163917 L 825.555047 34.683171 L 806.108595 34.683171 L 806.108595 26.041693 L 826.7556 26.041693 L 826.7556 13.560947 Z M 786.437039 13.560947 " stroke="#ff6442" stroke-width="2.999993" stroke-opacity="1" stroke-miterlimit="4"/><g fill="#ff6442" fill-opacity="1"><g transform="translate(78.506506, 191.715989)"><g><path d="M 0.25 -17.316406 L 7.394531 0 L 12.367188 0 L 19.339844 -17.316406 L 13.742188 -17.316406 L 10.417969 -8.421875 L 6.894531 -17.316406 Z M 0.25 -17.316406 "/></g></g></g><g fill="#ff6442" fill-opacity="1"><g transform="translate(98.09367, 191.715989)"><g><path d="M 7.519531 -17.316406 L 0.199219 0 L 6.496094 0 L 7.519531 -2.671875 L 13.941406 -2.671875 L 14.917969 0 L 21.238281 0 L 13.941406 -17.316406 Z M 10.742188 -11.617188 L 12.644531 -6.269531 L 8.792969 -6.269531 Z M 10.742188 -11.617188 "/></g></g></g><g fill="#ff6442" fill-opacity="1"><g transform="translate(119.52962, 191.715989)"><g><path d="M 1.449219 -17.316406 L 1.449219 0 L 14.015625 0 L 14.015625 -4.398438 L 7.59375 -4.398438 L 7.59375 -17.316406 Z M 1.449219 -17.316406 "/></g></g></g><g fill="#ff6442" fill-opacity="1"><g transform="translate(133.920189, 191.715989)"><g><path d="M 9.792969 -17.539062 C 3.574219 -17.539062 0.675781 -12.917969 0.675781 -8.671875 C 0.675781 -3.722656 4.296875 0.199219 9.792969 0.199219 C 15.964844 0.199219 18.914062 -4.371094 18.914062 -8.671875 C 18.914062 -13.542969 15.339844 -17.539062 9.792969 -17.539062 Z M 6.820312 -8.671875 C 6.820312 -10.917969 7.945312 -12.394531 9.769531 -12.394531 C 11.71875 -12.394531 12.765625 -10.820312 12.765625 -8.671875 C 12.765625 -6.519531 11.667969 -4.945312 9.792969 -4.945312 C 7.921875 -4.945312 6.820312 -6.519531 6.820312 -8.671875 Z M 6.820312 -8.671875 "/></g></g></g><g fill="#ff6442" fill-opacity="1"><g transform="translate(153.507354, 191.715989)"><g><path d="M 1.449219 -17.316406 L 1.449219 0 L 7.59375 0 L 7.59375 -7.296875 C 9.09375 -7.296875 9.695312 -6.847656 10.519531 -5.472656 C 10.917969 -4.796875 11.394531 -3.847656 11.917969 -2.597656 L 13.015625 0 L 19.113281 0 L 16.816406 -4.898438 C 15.914062 -6.796875 15.089844 -8.019531 14.191406 -8.320312 C 15.914062 -8.996094 16.941406 -10.519531 16.941406 -12.21875 C 16.941406 -14.140625 16.164062 -15.589844 14.265625 -16.566406 C 13.316406 -17.066406 11.917969 -17.316406 10.019531 -17.316406 Z M 7.59375 -14.417969 L 8.320312 -14.417969 C 10.167969 -14.417969 11.019531 -13.816406 11.019531 -12.292969 C 11.019531 -10.945312 10.242188 -10.144531 8.246094 -10.144531 L 7.59375 -10.144531 Z M 7.59375 -14.417969 "/></g></g></g><g fill="#ff6442" fill-opacity="1"><g transform="translate(172.669795, 191.715989)"><g><path d="M 7.519531 -17.316406 L 0.199219 0 L 6.496094 0 L 7.519531 -2.671875 L 13.941406 -2.671875 L 14.917969 0 L 21.238281 0 L 13.941406 -17.316406 Z M 10.742188 -11.617188 L 12.644531 -6.269531 L 8.792969 -6.269531 Z M 10.742188 -11.617188 "/></g></g></g><g fill="#ff6442" fill-opacity="1"><g transform="translate(194.105749, 191.715989)"><g><path d="M 1.449219 -17.316406 L 1.449219 0 L 7.59375 0 L 7.59375 -8.171875 L 15.140625 0 L 20.488281 0 L 20.488281 -17.316406 L 14.339844 -17.316406 L 14.339844 -9.09375 L 6.746094 -17.316406 Z M 1.449219 -17.316406 "/></g></g></g><g fill="#ff6442" fill-opacity="1"><g transform="translate(216.041371, 191.715989)"><g><path d="M 0.523438 -17.316406 L 0.523438 -12.917969 L 5.523438 -12.917969 L 5.523438 0 L 11.667969 0 L 11.667969 -12.917969 L 16.664062 -12.917969 L 16.664062 -17.316406 Z M 0.523438 -17.316406 "/></g></g></g><g fill="#ff6442" fill-opacity="1"><g transform="translate(233.230109, 191.715989)"><g/></g></g><g fill="#ff6442" fill-opacity="1"><g transform="translate(241.699548, 191.715989)"><g><path d="M 6.695312 -17.539062 C 3.222656 -17.539062 0.75 -15.390625 0.75 -12.167969 C 0.75 -10.492188 1.398438 -8.996094 3.824219 -7.570312 C 5.945312 -6.320312 6.496094 -5.945312 6.496094 -5.273438 C 6.496094 -4.648438 5.898438 -4.199219 4.671875 -4.199219 C 3.199219 -4.199219 1.898438 -4.796875 0.675781 -5.621094 L 0.675781 -0.972656 C 2.222656 -0.101562 3.949219 0.199219 5.945312 0.199219 C 8.871094 0.199219 10.945312 -0.800781 11.894531 -2.5 C 12.367188 -3.324219 12.59375 -4.171875 12.59375 -4.972656 C 12.59375 -6.695312 11.71875 -8.246094 8.894531 -9.792969 C 6.945312 -10.867188 6.394531 -11.367188 6.394531 -12.042969 C 6.394531 -12.617188 6.945312 -13.140625 7.820312 -13.140625 C 8.945312 -13.140625 10.34375 -12.367188 11.84375 -10.945312 L 11.84375 -15.566406 C 10.570312 -16.765625 8.570312 -17.539062 6.695312 -17.539062 Z M 6.695312 -17.539062 "/></g></g></g><g fill="#ff6442" fill-opacity="1"><g transform="translate(254.940863, 191.715989)"><g><path d="M 1.722656 -17.316406 L 1.722656 0 L 7.871094 0 L 7.871094 -17.316406 Z M 1.722656 -17.316406 "/></g></g></g><g fill="#ff6442" fill-opacity="1"><g transform="translate(264.509591, 191.715989)"><g><path d="M 0.523438 -17.316406 L 0.523438 -12.917969 L 5.523438 -12.917969 L 5.523438 0 L 11.667969 0 L 11.667969 -12.917969 L 16.664062 -12.917969 L 16.664062 -17.316406 Z M 0.523438 -17.316406 "/></g></g></g><g fill="#ff6442" fill-opacity="1"><g transform="translate(281.69833, 191.715989)"><g><path d="M 1.449219 -17.316406 L 1.449219 0 L 14.167969 0 L 14.167969 -3.898438 L 7.59375 -3.898438 L 7.59375 -6.820312 L 13.667969 -6.820312 L 13.667969 -10.71875 L 7.59375 -10.71875 L 7.59375 -13.417969 L 14.042969 -13.417969 L 14.042969 -17.316406 Z M 1.449219 -17.316406 "/></g></g></g><path stroke-linecap="butt" transform="matrix(0.312356, 0, 0, 0.312356, 37.500002, 196.683371)" fill="none" stroke-linejoin="miter" d="M 132.085801 13.556954 L 154.946325 68.994975 L 170.891165 68.994975 L 193.18893 13.556954 L 175.280686 13.556954 L 164.638287 42.045068 L 153.345588 13.556954 Z M 218.062881 13.556954 L 194.639598 68.994975 L 214.786373 68.994975 L 218.062881 60.441037 L 238.634852 60.441037 L 241.73628 68.994975 L 261.9831 68.994975 L 238.634852 13.556954 Z M 228.380131 31.802853 L 234.470435 48.923235 L 222.152264 48.923235 Z M 267.26053 13.556954 L 267.26053 68.994975 L 307.491551 68.994975 L 307.491551 54.913493 L 286.932086 54.913493 L 286.932086 13.556954 Z M 340.044037 12.856631 C 320.134871 12.856631 310.855599 27.638436 310.855599 41.2447 C 310.855599 57.089494 322.448436 69.645275 340.044037 69.645275 C 359.790627 69.645275 369.24498 55.001033 369.24498 41.2447 C 369.24498 25.650021 357.802212 12.856631 340.044037 12.856631 Z M 330.51465 41.2447 C 330.51465 34.041384 334.128813 29.314208 339.969002 29.314208 C 346.196869 29.314208 349.560918 34.354028 349.560918 41.2447 C 349.560918 48.122866 346.0468 53.162687 340.044037 53.162687 C 334.041273 53.162687 330.51465 48.122866 330.51465 41.2447 Z M 376.048111 13.556954 L 376.048111 68.994975 L 395.707162 68.994975 L 395.707162 45.646727 C 400.509373 45.646727 402.422753 47.084889 405.061468 51.486915 C 406.349561 53.650411 407.875263 56.676804 409.551035 60.678647 L 413.065153 68.994975 L 432.574134 68.994975 L 425.233254 53.312756 C 422.344425 47.247463 419.70571 43.320656 416.841891 42.357712 C 422.344425 40.194216 425.620933 35.329477 425.620933 29.889472 C 425.620933 23.73664 423.144793 19.084498 417.066995 15.958059 C 414.028096 14.357322 409.551035 13.556954 403.460731 13.556954 Z M 395.707162 22.848731 L 398.033233 22.848731 C 403.948456 22.848731 406.662205 24.762112 406.662205 29.651863 C 406.662205 33.966349 404.186065 36.517524 397.795623 36.517524 L 395.707162 36.517524 Z M 456.822797 13.556954 L 433.387008 68.994975 L 453.546289 68.994975 L 456.822797 60.441037 L 477.382262 60.441037 L 480.496195 68.994975 L 500.743016 68.994975 L 477.382262 13.556954 Z M 467.127541 31.802853 L 473.23035 48.923235 L 460.899674 48.923235 Z M 506.020446 13.556954 L 506.020446 68.994975 L 525.679496 68.994975 L 525.679496 42.845437 L 549.840619 68.994975 L 566.961 68.994975 L 566.961 13.556954 L 547.276939 13.556954 L 547.276939 39.881572 L 522.965747 13.556954 Z M 573.276408 13.556954 L 573.276408 27.638436 L 589.271271 27.638436 L 589.271271 68.994975 L 608.955333 68.994975 L 608.955333 27.638436 L 624.950196 27.638436 L 624.950196 13.556954 Z M 675.185823 12.856631 C 664.055699 12.856631 656.139555 19.734798 656.139555 30.039542 C 656.139555 35.404511 658.21551 40.194216 665.981586 44.758818 C 672.784718 48.773166 674.535524 49.961213 674.535524 52.124709 C 674.535524 54.113124 672.622143 55.563792 668.695335 55.563792 C 663.968159 55.563792 659.816247 53.650411 655.901945 50.999191 L 655.901945 65.881042 C 660.866731 68.682331 666.369264 69.645275 672.784718 69.645275 C 682.139024 69.645275 688.779581 66.443801 691.81848 60.991291 C 693.344182 58.352576 694.044505 55.638826 694.044505 53.087652 C 694.044505 47.560107 691.255721 42.595322 682.214058 37.630536 C 675.986191 34.203959 674.22288 32.603222 674.22288 30.452232 C 674.22288 28.613885 675.986191 26.938114 678.774975 26.938114 C 682.364128 26.938114 686.8662 29.401748 691.668411 33.966349 L 691.668411 19.159533 C 687.579028 15.332771 681.176081 12.856631 675.185823 12.856631 Z M 701.660511 13.556954 L 701.660511 68.994975 L 721.319561 68.994975 L 721.319561 13.556954 Z M 728.447843 13.556954 L 728.447843 27.638436 L 744.442706 27.638436 L 744.442706 68.994975 L 764.126768 68.994975 L 764.126768 27.638436 L 780.121631 27.638436 L 780.121631 13.556954 Z M 786.437039 13.556954 L 786.437039 68.994975 L 827.143278 68.994975 L 827.143278 56.526735 L 806.108595 56.526735 L 806.108595 47.172429 L 825.555047 47.172429 L 825.555047 34.691683 L 806.108595 34.691683 L 806.108595 26.037699 L 826.7556 26.037699 L 826.7556 13.556954 Z M 786.437039 13.556954 " stroke="#ff6442" stroke-width="2.999993" stroke-opacity="1" stroke-miterlimit="4"/><path stroke-linecap="butt" transform="matrix(0.312356, 0, 0, 0.312356, 37.500002, 223.203309)" fill="none" stroke-linejoin="miter" d="M 132.085801 13.555651 L 154.946325 69.006178 L 170.891165 69.006178 L 193.18893 13.555651 L 175.280686 13.555651 L 164.638287 42.056271 L 153.345588 13.555651 Z M 218.062881 13.555651 L 194.639598 69.006178 L 214.786373 69.006178 L 218.062881 60.45224 L 238.634852 60.45224 L 241.73628 69.006178 L 261.9831 69.006178 L 238.634852 13.555651 Z M 228.380131 31.80155 L 234.470435 48.921932 L 222.152264 48.921932 Z M 267.26053 13.555651 L 267.26053 69.006178 L 307.491551 69.006178 L 307.491551 54.924695 L 286.932086 54.924695 L 286.932086 13.555651 Z M 340.044037 12.855328 C 320.134871 12.855328 310.855599 27.637133 310.855599 41.243397 C 310.855599 57.088191 322.448436 69.643971 340.044037 69.643971 C 359.790627 69.643971 369.24498 54.99973 369.24498 41.243397 C 369.24498 25.648718 357.802212 12.855328 340.044037 12.855328 Z M 330.51465 41.243397 C 330.51465 34.040081 334.128813 29.312905 339.969002 29.312905 C 346.196869 29.312905 349.560918 34.352725 349.560918 41.243397 C 349.560918 48.121563 346.0468 53.161384 340.044037 53.161384 C 334.041273 53.161384 330.51465 48.121563 330.51465 41.243397 Z M 376.048111 13.555651 L 376.048111 69.006178 L 395.707162 69.006178 L 395.707162 45.645423 C 400.509373 45.645423 402.422753 47.083586 405.061468 51.485612 C 406.349561 53.649108 407.875263 56.675501 409.551035 60.677344 L 413.065153 69.006178 L 432.574134 69.006178 L 425.233254 53.323958 C 422.344425 47.24616 419.70571 43.319353 416.841891 42.368915 C 422.344425 40.192913 425.620933 35.328174 425.620933 29.888169 C 425.620933 23.735337 423.144793 19.083195 417.066995 15.956756 C 414.028096 14.356019 409.551035 13.555651 403.460731 13.555651 Z M 395.707162 22.847428 L 398.033233 22.847428 C 403.948456 22.847428 406.662205 24.773315 406.662205 29.65056 C 406.662205 33.965046 404.186065 36.528727 397.795623 36.528727 L 395.707162 36.528727 Z M 456.822797 13.555651 L 433.387008 69.006178 L 453.546289 69.006178 L 456.822797 60.45224 L 477.382262 60.45224 L 480.496195 69.006178 L 500.743016 69.006178 L 477.382262 13.555651 Z M 467.127541 31.80155 L 473.23035 48.921932 L 460.899674 48.921932 Z M 506.020446 13.555651 L 506.020446 69.006178 L 525.679496 69.006178 L 525.679496 42.85664 L 549.840619 69.006178 L 566.961 69.006178 L 566.961 13.555651 L 547.276939 13.555651 L 547.276939 39.880269 L 522.965747 13.555651 Z M 573.276408 13.555651 L 573.276408 27.637133 L 589.271271 27.637133 L 589.271271 69.006178 L 608.955333 69.006178 L 608.955333 27.637133 L 624.950196 27.637133 L 624.950196 13.555651 Z M 675.185823 12.855328 C 664.055699 12.855328 656.139555 19.733495 656.139555 30.038239 C 656.139555 35.415714 658.21551 40.192913 665.981586 44.77002 C 672.784718 48.771863 674.535524 49.95991 674.535524 52.123406 C 674.535524 54.124327 672.622143 55.562489 668.695335 55.562489 C 663.968159 55.562489 659.816247 53.649108 655.901945 50.997888 L 655.901945 65.879739 C 660.866731 68.693534 666.369264 69.643971 672.784718 69.643971 C 682.139024 69.643971 688.779581 66.442498 691.81848 60.989988 C 693.344182 58.351273 694.044505 55.637523 694.044505 53.086349 C 694.044505 47.558804 691.255721 42.594019 682.214058 37.641739 C 675.986191 34.202656 674.22288 32.601919 674.22288 30.450929 C 674.22288 28.612582 675.986191 26.936811 678.774975 26.936811 C 682.364128 26.936811 686.8662 29.400445 691.668411 33.965046 L 691.668411 19.15823 C 687.579028 15.331468 681.176081 12.855328 675.185823 12.855328 Z M 701.660511 13.555651 L 701.660511 69.006178 L 721.319561 69.006178 L 721.319561 13.555651 Z M 728.447843 13.555651 L 728.447843 27.637133 L 744.442706 27.637133 L 744.442706 69.006178 L 764.126768 69.006178 L 764.126768 27.637133 L 780.121631 27.637133 L 780.121631 13.555651 Z M 786.437039 13.555651 L 786.437039 69.006178 L 827.143278 69.006178 L 827.143278 56.525432 L 806.108595 56.525432 L 806.108595 47.171126 L 825.555047 47.171126 L 825.555047 34.69038 L 806.108595 34.69038 L 806.108595 26.036396 L 826.7556 26.036396 L 826.7556 13.555651 Z M 786.437039 13.555651 " stroke="#ff6442" stroke-width="2.999993" stroke-opacity="1" stroke-miterlimit="4"/></svg>