<svg xmlns="http://www.w3.org/2000/svg" xmlns:xlink="http://www.w3.org/1999/xlink" width="500" zoomAndPan="magnify" viewBox="0 0 375 374.999991" height="500" preserveAspectRatio="xMidYMid meet" version="1.0"><defs><g/><clipPath id="6b7521e748"><path d="M 118.128906 99.101562 L 256.878906 99.101562 L 256.878906 237.851562 L 118.128906 237.851562 Z M 118.128906 99.101562 " clip-rule="nonzero"/></clipPath></defs><g clip-path="url(#6b7521e748)"><path fill="#ffffff" d="M 253.9375 191.644531 C 252.484375 191.644531 251.308594 190.46875 251.308594 189.015625 L 251.308594 108.34375 L 206.667969 152.984375 C 205.640625 154.011719 203.972656 154.011719 202.945312 152.984375 C 201.921875 151.957031 201.921875 150.292969 202.945312 149.265625 L 252.078125 100.136719 C 252.828125 99.382812 253.960938 99.15625 254.945312 99.566406 C 255.925781 99.972656 256.566406 100.929688 256.566406 101.996094 L 256.566406 189.015625 C 256.566406 190.46875 255.390625 191.644531 253.9375 191.644531 Z M 121.074219 237.488281 C 119.621094 237.488281 118.441406 236.3125 118.441406 234.859375 L 118.441406 143.171875 C 118.441406 142.109375 119.082031 141.148438 120.066406 140.742188 C 121.050781 140.335938 122.179688 140.558594 122.933594 141.3125 L 168.777344 187.15625 C 169.804688 188.183594 169.804688 189.847656 168.777344 190.875 C 167.75 191.902344 166.082031 191.902344 165.054688 190.875 L 123.703125 149.519531 L 123.703125 234.859375 C 123.703125 236.3125 122.523438 237.488281 121.074219 237.488281 Z M 253.9375 237.488281 C 253.265625 237.488281 252.589844 237.230469 252.078125 236.71875 L 119.214844 103.851562 C 118.1875 102.828125 118.1875 101.160156 119.214844 100.136719 C 120.242188 99.109375 121.90625 99.109375 122.933594 100.136719 L 255.796875 233 C 256.824219 234.027344 256.824219 235.691406 255.796875 236.71875 C 255.28125 237.230469 254.609375 237.488281 253.9375 237.488281 " fill-opacity="1" fill-rule="nonzero"/></g><g fill="#fffbfa" fill-opacity="1"><g transform="translate(134.521842, 269.751575)"><g><path d="M 3.554688 0 C 3.738281 0 3.832031 -0.09375 3.832031 -0.28125 L 3.832031 -3.609375 L 7.210938 -3.609375 C 7.386719 -3.609375 7.488281 -3.710938 7.488281 -3.886719 L 7.488281 -5.570312 C 7.488281 -5.753906 7.386719 -5.847656 7.210938 -5.847656 L 3.832031 -5.847656 L 3.832031 -8.117188 L 7.851562 -8.117188 C 8.035156 -8.117188 8.132812 -8.214844 8.132812 -8.398438 L 8.132812 -10.214844 C 8.132812 -10.402344 8.035156 -10.496094 7.851562 -10.496094 L 1.320312 -10.496094 C 1.132812 -10.496094 1.039062 -10.402344 1.039062 -10.214844 L 1.039062 -0.28125 C 1.039062 -0.09375 1.132812 0 1.320312 0 Z M 3.554688 0 "/></g></g></g><g fill="#fffbfa" fill-opacity="1"><g transform="translate(154.357905, 269.751575)"><g><path d="M 3.554688 0 C 3.738281 0 3.832031 -0.09375 3.832031 -0.28125 L 3.832031 -10.214844 C 3.832031 -10.402344 3.738281 -10.496094 3.554688 -10.496094 L 1.320312 -10.496094 C 1.132812 -10.496094 1.039062 -10.402344 1.039062 -10.214844 L 1.039062 -0.28125 C 1.039062 -0.09375 1.132812 0 1.320312 0 Z M 3.554688 0 "/></g></g></g><g fill="#fffbfa" fill-opacity="1"><g transform="translate(170.429469, 269.751575)"><g><path d="M 3.3125 0 C 3.472656 0 3.566406 -0.0546875 3.636719 -0.210938 L 5.113281 -3.273438 L 6.566406 -0.210938 C 6.636719 -0.0546875 6.730469 0 6.886719 0 L 9.628906 0 C 9.855469 0 9.921875 -0.136719 9.8125 -0.335938 L 6.785156 -5.261719 L 9.800781 -10.160156 C 9.910156 -10.359375 9.839844 -10.496094 9.613281 -10.496094 L 6.886719 -10.496094 C 6.730469 -10.496094 6.636719 -10.441406 6.566406 -10.285156 L 5.113281 -7.210938 L 3.636719 -10.285156 C 3.566406 -10.441406 3.472656 -10.496094 3.3125 -10.496094 L 0.601562 -10.496094 C 0.375 -10.496094 0.308594 -10.359375 0.417969 -10.160156 L 3.429688 -5.261719 L 0.390625 -0.335938 C 0.28125 -0.136719 0.347656 0 0.574219 0 Z M 3.3125 0 "/></g></g></g><g fill="#fffbfa" fill-opacity="1"><g transform="translate(191.84375, 269.751575)"><g/></g></g><g fill="#fffbfa" fill-opacity="1"><g transform="translate(207.519053, 269.751575)"><g><path d="M 5.679688 0.28125 C 8.253906 0.28125 10.429688 -0.828125 10.429688 -3.539062 L 10.429688 -10.214844 C 10.429688 -10.402344 10.324219 -10.496094 10.148438 -10.496094 L 7.839844 -10.496094 C 7.652344 -10.496094 7.558594 -10.402344 7.558594 -10.214844 L 7.558594 -4.285156 C 7.558594 -2.84375 6.914062 -2.242188 5.679688 -2.242188 C 4.460938 -2.242188 3.804688 -2.84375 3.804688 -4.285156 L 3.804688 -10.214844 C 3.804688 -10.402344 3.710938 -10.496094 3.527344 -10.496094 L 1.214844 -10.496094 C 1.039062 -10.496094 0.9375 -10.402344 0.9375 -10.214844 L 0.9375 -3.539062 C 0.9375 -0.828125 3.175781 0.28125 5.679688 0.28125 Z M 5.679688 0.28125 "/></g></g></g><g fill="#fffbfa" fill-opacity="1"><g transform="translate(230.081136, 269.751575)"><g><path d="M 7.824219 -3.941406 C 8.855469 -4.484375 9.445312 -5.601562 9.445312 -7.121094 C 9.445312 -8.917969 8.636719 -10.496094 5.679688 -10.496094 L 1.320312 -10.496094 C 1.132812 -10.496094 1.039062 -10.402344 1.039062 -10.214844 L 1.039062 -0.28125 C 1.039062 -0.09375 1.132812 0 1.320312 0 L 3.566406 0 C 3.75 0 3.847656 -0.09375 3.847656 -0.28125 L 3.847656 -3.582031 L 5.03125 -3.582031 L 6.71875 -0.210938 C 6.785156 -0.0664062 6.886719 0 7.039062 0 L 9.585938 0 C 9.800781 0 9.882812 -0.136719 9.785156 -0.335938 Z M 5.195312 -8.117188 C 5.753906 -8.117188 6.648438 -8.117188 6.648438 -7.09375 C 6.648438 -5.957031 5.582031 -5.957031 5.195312 -5.957031 L 3.847656 -5.957031 L 3.847656 -8.117188 Z M 5.195312 -8.117188 "/></g></g></g><g fill="#fffbfa" fill-opacity="1"><g transform="translate(162.096059, 283.251574)"><g><path d="M 5.78125 -10.496094 C 5.570312 -10.925781 5.234375 -10.925781 5.023438 -10.496094 L 0.210938 -0.335938 C 0.121094 -0.136719 0.210938 0 0.417969 0 L 2.882812 0 C 3.035156 0 3.148438 -0.0820312 3.203125 -0.226562 L 3.546875 -1.105469 L 7.257812 -1.105469 L 7.597656 -0.226562 C 7.652344 -0.0820312 7.769531 0 7.921875 0 L 10.386719 0 C 10.59375 0 10.679688 -0.136719 10.59375 -0.335938 Z M 5.40625 -5.84375 L 6.4375 -3.203125 L 4.367188 -3.203125 Z M 5.40625 -5.84375 "/></g></g></g><g fill="#fffbfa" fill-opacity="1"><g transform="translate(184.111569, 283.251574)"><g><path d="M 3.554688 0 C 3.738281 0 3.832031 -0.09375 3.832031 -0.28125 L 3.832031 -10.214844 C 3.832031 -10.402344 3.738281 -10.496094 3.554688 -10.496094 L 1.320312 -10.496094 C 1.132812 -10.496094 1.039062 -10.402344 1.039062 -10.214844 L 1.039062 -0.28125 C 1.039062 -0.09375 1.132812 0 1.320312 0 Z M 3.554688 0 "/></g></g></g><g fill="#fffbfa" fill-opacity="1"><g transform="translate(200.183132, 283.251574)"><g><path d="M 3.5 0 C 3.683594 0 3.777344 -0.09375 3.777344 -0.28125 L 3.777344 -4.046875 L 6.144531 -1.285156 C 6.273438 -1.132812 6.410156 -1.132812 6.53125 -1.285156 L 8.929688 -4.074219 L 8.929688 -0.28125 C 8.929688 -0.09375 9.027344 0 9.210938 0 L 11.378906 0 C 11.5625 0 11.65625 -0.09375 11.65625 -0.28125 L 11.65625 -10.257812 C 11.65625 -10.777344 11.296875 -10.898438 10.972656 -10.496094 L 6.339844 -4.703125 L 1.734375 -10.496094 C 1.402344 -10.921875 1.050781 -10.777344 1.050781 -10.257812 L 1.050781 -0.28125 C 1.050781 -0.09375 1.148438 0 1.332031 0 Z M 3.5 0 "/></g></g></g></svg>