<svg xmlns="http://www.w3.org/2000/svg" xmlns:xlink="http://www.w3.org/1999/xlink" zoomAndPan="magnify" preserveAspectRatio="xMidYMid meet" version="1.0" viewBox="78.76 174.18 217.11 17.74"><defs><g/></defs><g fill="#ff6442" fill-opacity="1"><g transform="translate(78.506506, 191.715989)"><g><path d="M 0.25 -17.316406 L 7.394531 0 L 12.367188 0 L 19.339844 -17.316406 L 13.742188 -17.316406 L 10.417969 -8.421875 L 6.894531 -17.316406 Z M 0.25 -17.316406 "/></g></g></g><g fill="#ff6442" fill-opacity="1"><g transform="translate(98.09367, 191.715989)"><g><path d="M 7.519531 -17.316406 L 0.199219 0 L 6.496094 0 L 7.519531 -2.671875 L 13.941406 -2.671875 L 14.917969 0 L 21.238281 0 L 13.941406 -17.316406 Z M 10.742188 -11.617188 L 12.644531 -6.269531 L 8.792969 -6.269531 Z M 10.742188 -11.617188 "/></g></g></g><g fill="#ff6442" fill-opacity="1"><g transform="translate(119.52962, 191.715989)"><g><path d="M 1.449219 -17.316406 L 1.449219 0 L 14.015625 0 L 14.015625 -4.398438 L 7.59375 -4.398438 L 7.59375 -17.316406 Z M 1.449219 -17.316406 "/></g></g></g><g fill="#ff6442" fill-opacity="1"><g transform="translate(133.920189, 191.715989)"><g><path d="M 9.792969 -17.539062 C 3.574219 -17.539062 0.675781 -12.917969 0.675781 -8.671875 C 0.675781 -3.722656 4.296875 0.199219 9.792969 0.199219 C 15.964844 0.199219 18.914062 -4.371094 18.914062 -8.671875 C 18.914062 -13.542969 15.339844 -17.539062 9.792969 -17.539062 Z M 6.820312 -8.671875 C 6.820312 -10.917969 7.945312 -12.394531 9.769531 -12.394531 C 11.71875 -12.394531 12.765625 -10.820312 12.765625 -8.671875 C 12.765625 -6.519531 11.667969 -4.945312 9.792969 -4.945312 C 7.921875 -4.945312 6.820312 -6.519531 6.820312 -8.671875 Z M 6.820312 -8.671875 "/></g></g></g><g fill="#ff6442" fill-opacity="1"><g transform="translate(153.507354, 191.715989)"><g><path d="M 1.449219 -17.316406 L 1.449219 0 L 7.59375 0 L 7.59375 -7.296875 C 9.09375 -7.296875 9.695312 -6.847656 10.519531 -5.472656 C 10.917969 -4.796875 11.394531 -3.847656 11.917969 -2.597656 L 13.015625 0 L 19.113281 0 L 16.816406 -4.898438 C 15.914062 -6.796875 15.089844 -8.019531 14.191406 -8.320312 C 15.914062 -8.996094 16.941406 -10.519531 16.941406 -12.21875 C 16.941406 -14.140625 16.164062 -15.589844 14.265625 -16.566406 C 13.316406 -17.066406 11.917969 -17.316406 10.019531 -17.316406 Z M 7.59375 -14.417969 L 8.320312 -14.417969 C 10.167969 -14.417969 11.019531 -13.816406 11.019531 -12.292969 C 11.019531 -10.945312 10.242188 -10.144531 8.246094 -10.144531 L 7.59375 -10.144531 Z M 7.59375 -14.417969 "/></g></g></g><g fill="#ff6442" fill-opacity="1"><g transform="translate(172.669795, 191.715989)"><g><path d="M 7.519531 -17.316406 L 0.199219 0 L 6.496094 0 L 7.519531 -2.671875 L 13.941406 -2.671875 L 14.917969 0 L 21.238281 0 L 13.941406 -17.316406 Z M 10.742188 -11.617188 L 12.644531 -6.269531 L 8.792969 -6.269531 Z M 10.742188 -11.617188 "/></g></g></g><g fill="#ff6442" fill-opacity="1"><g transform="translate(194.105749, 191.715989)"><g><path d="M 1.449219 -17.316406 L 1.449219 0 L 7.59375 0 L 7.59375 -8.171875 L 15.140625 0 L 20.488281 0 L 20.488281 -17.316406 L 14.339844 -17.316406 L 14.339844 -9.09375 L 6.746094 -17.316406 Z M 1.449219 -17.316406 "/></g></g></g><g fill="#ff6442" fill-opacity="1"><g transform="translate(216.041371, 191.715989)"><g><path d="M 0.523438 -17.316406 L 0.523438 -12.917969 L 5.523438 -12.917969 L 5.523438 0 L 11.667969 0 L 11.667969 -12.917969 L 16.664062 -12.917969 L 16.664062 -17.316406 Z M 0.523438 -17.316406 "/></g></g></g><g fill="#ff6442" fill-opacity="1"><g transform="translate(233.230109, 191.715989)"><g/></g></g><g fill="#ff6442" fill-opacity="1"><g transform="translate(241.699548, 191.715989)"><g><path d="M 6.695312 -17.539062 C 3.222656 -17.539062 0.75 -15.390625 0.75 -12.167969 C 0.75 -10.492188 1.398438 -8.996094 3.824219 -7.570312 C 5.945312 -6.320312 6.496094 -5.945312 6.496094 -5.273438 C 6.496094 -4.648438 5.898438 -4.199219 4.671875 -4.199219 C 3.199219 -4.199219 1.898438 -4.796875 0.675781 -5.621094 L 0.675781 -0.972656 C 2.222656 -0.101562 3.949219 0.199219 5.945312 0.199219 C 8.871094 0.199219 10.945312 -0.800781 11.894531 -2.5 C 12.367188 -3.324219 12.59375 -4.171875 12.59375 -4.972656 C 12.59375 -6.695312 11.71875 -8.246094 8.894531 -9.792969 C 6.945312 -10.867188 6.394531 -11.367188 6.394531 -12.042969 C 6.394531 -12.617188 6.945312 -13.140625 7.820312 -13.140625 C 8.945312 -13.140625 10.34375 -12.367188 11.84375 -10.945312 L 11.84375 -15.566406 C 10.570312 -16.765625 8.570312 -17.539062 6.695312 -17.539062 Z M 6.695312 -17.539062 "/></g></g></g><g fill="#ff6442" fill-opacity="1"><g transform="translate(254.940863, 191.715989)"><g><path d="M 1.722656 -17.316406 L 1.722656 0 L 7.871094 0 L 7.871094 -17.316406 Z M 1.722656 -17.316406 "/></g></g></g><g fill="#ff6442" fill-opacity="1"><g transform="translate(264.509591, 191.715989)"><g><path d="M 0.523438 -17.316406 L 0.523438 -12.917969 L 5.523438 -12.917969 L 5.523438 0 L 11.667969 0 L 11.667969 -12.917969 L 16.664062 -12.917969 L 16.664062 -17.316406 Z M 0.523438 -17.316406 "/></g></g></g><g fill="#ff6442" fill-opacity="1"><g transform="translate(281.69833, 191.715989)"><g><path d="M 1.449219 -17.316406 L 1.449219 0 L 14.167969 0 L 14.167969 -3.898438 L 7.59375 -3.898438 L 7.59375 -6.820312 L 13.667969 -6.820312 L 13.667969 -10.71875 L 7.59375 -10.71875 L 7.59375 -13.417969 L 14.042969 -13.417969 L 14.042969 -17.316406 Z M 1.449219 -17.316406 "/></g></g></g></svg>